<svg xmlns="http://www.w3.org/2000/svg" width="101.355" height="101.355" viewBox="0 0 101.355 101.355"><defs><style>.a{fill:#fafafa;}</style></defs><g transform="translate(-1832.501 5555.5)"><g transform="translate(1855.295 -5532.923)"><path class="a" d="M21.7,35.259,5.772,31.046l.007-.022-.007,0a3.293,3.293,0,0,1,1.7-6.361l7.191,1.927a3.329,3.329,0,0,1,.365.121c3.14.824,6.332,1.67,7.425,1.986a11.655,11.655,0,0,0,9.509-1.546,11.181,11.181,0,0,0,4.7-8.973A11.306,11.306,0,0,0,28.8,7.5c-6.187-2.077-11.2,2.669-11.2,2.669L5.653,22l0,0-.03.03A3.292,3.292,0,0,1,.964,17.37l4.551-4.551c2.68-2.757,6.029-6.087,8.43-8.091C18.6.843,22.253.014,26.263,0A18.291,18.291,0,0,1,38.82,5.336c4.066,3.808,8.811,14.94,1.021,24.015a17.743,17.743,0,0,1-13.8,6.443A16.335,16.335,0,0,1,21.7,35.259Z" transform="translate(11.059 17.197)"/><g transform="translate(0 0)"><rect class="a" width="6.872" height="22.467" rx="3.436" transform="translate(0 7.69) rotate(-42)"/><rect class="a" width="6.872" height="16.768" rx="3.436" transform="translate(13.026 6.226) rotate(-42)"/><rect class="a" width="6.872" height="12.698" rx="3.436" transform="translate(26.051 4.598) rotate(-42)"/></g></g><path class="a" d="M40.463,100.325A50.422,50.422,0,0,1,22.343,92.7c-.8-.538-1.587-1.106-2.358-1.694L.73,95.161,6.825,76.093a50.588,50.588,0,1,1,33.638,24.233Zm-6.778-9.712a43.179,43.179,0,0,0,8.153,2.531,43.87,43.87,0,0,0,17.507,0,43.189,43.189,0,0,0,15.532-6.536A43.552,43.552,0,0,0,90.613,67.5a43.234,43.234,0,0,0,2.531-8.153,43.87,43.87,0,0,0,0-17.507,43.223,43.223,0,0,0-6.536-15.532A43.567,43.567,0,0,0,67.5,10.571a43.192,43.192,0,0,0-8.153-2.531,43.834,43.834,0,0,0-17.507,0,43.189,43.189,0,0,0-15.532,6.536A43.562,43.562,0,0,0,10.571,33.685a43.229,43.229,0,0,0-2.531,8.153,43.834,43.834,0,0,0,0,17.507,43.3,43.3,0,0,0,1.973,6.769l.007-.022,3.261,6.8L9.39,87,23.778,84.98l6.25,3.858L30,88.844C31.2,89.492,32.438,90.085,33.685,90.614Z" transform="translate(1832.501 -5555.5)"/></g></svg>